<svg xmlns="http://www.w3.org/2000/svg" viewBox="0 0 1860.6 1290.33"><defs><style>.cls-1{fill:#0b0754}.cls-2{fill:#4951ec}.cls-3{fill:#bed1f9}.cls-5{fill:#184655}.cls-6{fill:#7c9af2}.cls-8{fill:#f7a491}.cls-9{fill:#ef7f7f}.cls-10{fill:#e8605d}.cls-11{fill:#fa7167}.cls-12{fill:#fb9390}.cls-13{fill:#f48c7f}.cls-14{fill:#92b5f9}.cls-16{fill:#fff}</style></defs><g id="Camada_2" data-name="Camada 2"><g id="Layer_1" data-name="Layer 1"><path class="cls-1" d="M669.07 1109.63a493.74 493.74 0 0155-153q11.46-20.39 24.89-39.77c4.21-6.09-6.29-11.71-10.48-5.65a501.22 501.22 0 00-70.76 150.56 449.69 449.69 0 00-10 45c-.49 2.9.8 5.85 4.12 6.7 2.83.71 6.72-.89 7.25-3.8zm121.57-178.09c8.31 7.09 12.48 17 16 26.7A289.78 289.78 0 01817 994c5.29 23.81 7.83 48 9.4 72.27.92 14.06 1.5 28.13 2.08 42.19.29 7.3 12.63 7.34 12.33 0-2.1-50.71-4.25-102.51-21.61-151.11-4.34-12.16-9.42-24.91-20.21-33.51a6.39 6.39 0 00-8.3 0 5.19 5.19 0 000 7.67z"/><path class="cls-1" d="M809 888.48H644.6c-11.74 0-21.27 8.76-21.27 19.57 0 10.8 9.49 20.49 21.23 20.49l191.21 7c10.89 0 23.05-14.71 25.68-24.44l49.32-182.36c3-11.22-4.51-22.56-16.75-25.18-11.93-2.56-23.89 4.13-26.93 15L822.53 878.8c-1.59 5.7-7.17 9.68-13.53 9.68z"/><path class="cls-2" d="M754.6 448.86l-14.93-.53-1.41 13.86-14.73.13-2.98 13.07-11 1.9.96 5.57 14.72-2.54 2.82-12.39 15.33-.13 1.38-13.63 13.53.48-3.69-5.79z"/><path class="cls-3" d="M574.13 703.38l-2.28 7.97 12.43 5.09-1.9 12.08 8.68 5.33-2.7 4.39-11.6-7.13 1.79-11.44-12.92-5.29 3.43-12.01 5.07 1.01zm340.2-40.19l-11.39 2.5-7.21-9.47-12.58 3.7-4.57-12.44-14.41 3.55-5.63-10.94-14.42 1.16.44 5.46 10.78-.87 5.94 11.55 13.85-3.42 4.64 12.66 13.88-4.09 7.05 9.24 10.56-2.31 3.36 7.04 4.94-2.36-5.23-10.96zM611.6 698.18l6.98-4.56-2.98-4.59-11.29 7.37 7.1 12.61-7.43 8.94 4.63 9.77-6.1 4.85 3.41 4.29 9.5-7.56-4.99-10.54 7.6-9.15-6.43-11.43z"/><path class="cls-3" transform="rotate(180 562.11 831.94)" d="M453.21 796.06H671v71.76H453.21z"/><path transform="rotate(180 444.41 931.945)" fill="#fae0b2" d="M362.96 791.96h162.89v279.97H362.96z"/><path class="cls-1" transform="rotate(180 672.72 944.905)" d="M661.21 781.98h23.03v325.86h-23.03z"/><path class="cls-5" transform="rotate(180 438.87 1089.54)" d="M430.6 1071.24h16.53v36.6H430.6z"/><path class="cls-5" transform="rotate(180 347.24 1089.815)" d="M338.98 1071.81h16.53v36.02h-16.53z"/><path class="cls-2" d="M478 775.77a5.33 5.33 0 001.18-.13c3.4-.76 5.63-4.62 5-8.61 0 0-27-155.83-29.1-156.63-.67-.25-2.26-3.45-2.32-3.45a5.61 5.61 0 00-1 .13c-3.4.76-5.63 4.62-5 8.61l25.07 154.1c.61 3.53 3.24 5.98 6.17 5.98z"/><path class="cls-6" d="M532.91 621.55l25 150.22-77.46 1.08L452.74 607l70.46 3.92c5.32.19 9.04 6.52 9.71 10.63z"/><path d="M666.47 768.53v.26c0 4.79-2.79 8.74-6.27 8.75l-98.38.25c-3.48 0-6.31-3.87-6.32-8.66v-.6z" fill="#355389"/><path class="cls-2" d="M638 768.52v.27c0 4.85-4.22 8.8-9.44 8.81l-147.35.31c-5.22 0-9.46-3.92-9.47-8.78v-.61z"/><path class="cls-8" d="M607.58 1040.42c-6 11.13-20.62 47.84-21.18 50.62a13.58 13.58 0 01-2.92 4c-18.9 1.89-32.73-8.25-43.23-18.26 9.91.7 25.06-1.87 27.27-2.24 5.75-1 5.13-18.47 8.42-38.12 5.06 2.33 24.22-2.72 31.64 4z"/><path class="cls-1" d="M586.47 1090.8c-1.56 6.14-8.07 17.48-9.33 17.15-1.5-.39-57.29-20.42-62.09-28.41-3-4.93 12.29-5.17 24.57-4.54 10.5 10 43.63 17.39 46.85 15.8z"/><path class="cls-2" d="M787.84 883.39l-129.79 7.48-47.31 163.85-37.61-7.36s21.11-169.52 33.4-183.7C640.06 825 757.2 829.54 757.2 829.54z"/><path class="cls-8" d="M687.7 1049.23c-.48 7.55-2.21 16.69-1.87 25.5.23 5.91 2.42 13.11 2.68 14.22a13.72 13.72 0 01-1 4.84c-16.39 9.6-33.19 6.14-46.91 1.42 9.3-3.5 15.78-10.46 18.11-13 3.95-4.29 1.14-17.16-4.07-36.39 5.62 0 23.51.4 33.06 3.41z"/><path class="cls-6" d="M774.4 818s-121 2.27-151.46 46.79c-22.76 33.32 33.91 197.62 33.91 197.62l34.11-6.29s-7.86-111.33-13.54-148.07c-1-6.22-5.4-24.61-5.4-24.61s15.13 4.51 43.24 6.31c38.62 2.46 94.83 1.81 107-4.5 21-10.91 29.75-40.47 20.53-59.76S774.4 818 774.4 818z"/><path class="cls-1" d="M688.47 1088.7c2.13 3.89 3.21 19 1.93 19.21-1.53.27-65.64 3.87-73.34-1.4-4.74-3.25 12.13-6.75 23.55-11.3 13.72 4.72 47.17-2.34 47.86-6.51z"/><path class="cls-9" d="M681.42 737.45s-35.25 8.82-52.87 14.42-40.06 7.21-40.06 7.21l-19 10 40.59 1.2 94.53-8.41 8-22z"/><path class="cls-10" d="M707.86 666.15l-16.86 2.4s-6 1.21-10.81 27.64-11.62 40.46-11.62 40.46l41.26 16.42c30.17-41.64 50.86-90.97-1.97-86.92z"/><path class="cls-11" d="M706.84 642.18c-10.74 1.88-11.4 10.55-11.4 10.55l-11 45.87s-1 19.43 1.21 26.86c4.34 14.46 13.11 20.16 27.48 25.08 19 6.51 26.57 22.93 34.78 32.51 14.25 16.62 2.65 36.51 2.65 36.51l99.59 14s1.35-19.44-21.21-74c-19.59-47.5-66.54-127.1-122.1-117.38z"/><path class="cls-12" d="M742.31 647.72c-12.22-13.41-43.26 3.21-33.65 47.67.06.29 3.58 47 .61 52.91-1.8 3.6-45.06 1.8-71.24 7.31 0 0-28.32-10.5-38.26-11.21-7.37-.53-24.9 5.07-24.9 5.07s-22.59 16.67-19.43 19.43c4.32 3.77 15-12.69 23.9-12.69 0 0-16.31 12.61-11.28 12.89s12-3.49 15.62-4.61 17 5.61 28.84 7c2 .23 9.67-.19 18.63 1s19.35 4.52 31.38 5.08c32.33 1.5 68.93 5.07 78-4 6.74-6.83 22.33-103.27 1.78-125.85z"/><path class="cls-10" d="M747.77 746c-19.74-2.56-39.54-10-39.54-10s-1.63-39.11-1.77-40.59c-1.27-20.43-.51-36.86 8-47.47 4.31-5.33 8.91-6.6 14.38-6.6 5.12 0 12.26 2 16 6.81 13.77 17.58 8.51 68.74 4.2 96.88l-.17 1.16z"/><path class="cls-2" d="M697.9 566.54c1.52-13.18 1.5-63.25 31.94-62.22s30.61 34.53 55.25-5.83c22.84-37.39 65-13.23 61.09 17.71a27.54 27.54 0 0112.47 4.47c13.31 8.84 16.52 27.41 7.17 41.48-1.48 2.23-1.36 4.75-3.24 6.48.93 14-4.35 28.75-17.57 42.26-36.11 36.91-55.83-12.9-75.27-14.14s-9.89 16-28.54 24.42-31.31 2.92-52.09-33.78l-5-10s12.27 2.32 13.79-10.85z"/><path class="cls-2" d="M680.35 557.46c21.42 14.95 26.15 53 6.44 71.17-12.81 11.8-38 13.86-52 2.15-22.73-19-25.26-40.5-17.21-57.38 10.35-21.78 45.11-28.26 62.77-15.94z"/><path class="cls-12" d="M687 609s6.6 20.48 29.83 32.3c2.86 1.45-32.41 58.18-32.43 57.51-.1-4.38 6.1-29.94 4.59-33.08C684.91 657.15 661 618 661 618z"/><path class="cls-9" d="M673.72 613.59L661 618s10.53 17.23 18.82 31.32a27.79 27.79 0 007.61-10.69 40.71 40.71 0 002.56-23.22A41.25 41.25 0 01687 609z"/><path class="cls-12" d="M639.51 570.58a35.13 35.13 0 0123.86-.18c12.43 4.66 34.77 34.88 23.26 61.39s-39 13.33-51.24-3.48-24.39-42.17 4.12-57.73z"/><path class="cls-2" d="M689 585.59c-9.84-17.1-20.65-27.13-35.84-23.24s-28.8 6.49-29.83 24.32l-1.09 3s22-10.74 31.11-2.34 28.22 11.15 30.76 17 8.89 16.41 8.89 16.41l1.14-6.56s4.74-11.49-5.14-28.59z"/><path class="cls-12" d="M665.84 596.07c2.06 5.3 6.7 8.37 10.38 6.84s5-7.07 2.93-12.37-6.7-8.37-10.37-6.84-4.99 7.06-2.94 12.37z"/><path class="cls-3" transform="rotate(180 406.02 931.945)" d="M273.58 791.96h264.89v279.97H273.58z"/><path class="cls-1" transform="rotate(180 545.715 946.86)" d="M534.77 785.75h21.88v322.22h-21.88z"/><path class="cls-5" transform="rotate(180 273.975 949.285)" d="M267.8 788.18h12.36v322.22H267.8z"/><rect class="cls-1" x="216.23" y="777.55" width="493.97" height="19.83" rx="9.89" transform="rotate(180 463.215 787.47)"/><path class="cls-2" d="M1780.11 1112.56c0-3.29-1.62-6-3.62-6H148.18c-2.42 0-4.39 2.67-4.39 6s2 6 4.39 6h1628.31c2 0 3.62-2.67 3.62-6z"/><rect class="cls-12" x="1140.18" width="308.43" height="158.31" rx="46.27" transform="rotate(180 1294.395 79.155)"/><path class="cls-12" d="M1366.36 139.09l5.82 112.17-79.15-114.79 73.33 2.62z"/><path class="cls-9" d="M1057.25 484.05l5.08-23.15s16.66 10.57 26.37 25.66 14.34 55.36 17.12 56.87 33.51-45.85 38.89-53.32c6.64-9.23 9.13-19.83 13.29-27.88s18.82-10.79 24.37-9.78-7.62 24.55-7.62 24.55-33.31 57.87-44.41 89.57-45.8 46.8-51.35 42.27-21.74-124.79-21.74-124.79z"/><path class="cls-12" d="M1158.37 466.66s1.39-6.09 5.12-7.34 10.25-.13 10.67 0 7.61-3.74 7.61-3.74l-6 11.08s-11.63 13.71-15.51 8.59-1.89-8.59-1.89-8.59z"/><path class="cls-13" d="M1183.85 456.09s4.2 21.37 3.14 25.85-3.75 2.09-4.25 1.11c-2.06-4-3.51-17.73-3.51-17.73z"/><path class="cls-13" d="M1174.8 473.86s2 13.26 4.07 14.82c1.33 1 3 .42 3.6-2.26s-2.68-19-2.68-19z"/><path class="cls-1" d="M1162.56 511.48l-7-3.4 29.61-60.75a7.75 7.75 0 013.57 10.37zm-74.41-122.62c4.18-19 8.28-38.11-2.74-59-8.92-16.89-24.33-26.61-42.17-28.73-50.54-6-39.74 41.19-110.38 51.4-22 3.18-42.34 6.23-60.67 17.14-33.09 19.74-45.58 51.33-23.64 102.87 53.74 126.14 185.65 19.06 201.94-5.78 12.12-18.48 34.97-65.67 37.66-77.9z"/><path class="cls-12" d="M886 1185.66s-3.6 36.54-12.85 43.25-21.59 31.54-15.42 44.95c1.93 4.2 5.78 6.62 10.17 8 13 4 26.83-2.73 32.36-15.16a76.6 76.6 0 006.35-27.86c1.39-29.69 10.64-44.79 10.64-44.79zm142.2 14.96s2.91 36.87.55 48.85c-1.27 6.42-8.33 19.63-5.09 25.66s6.94 7.55 6.94 7.55l83.92 1.35c4.57.08 1.55-2.86-2.13-5.57-6-4.42-10.91-7.35-30.18-16.65-1.25-.61-5.83-3.51-7.48-4.52a57.94 57.94 0 01-12-10.58c-6-6.7-6.55-39.17-6.55-39.17z"/><path class="cls-14" d="M1093.79 710.49s10.57 59.87 3.63 99.12-40.24 403.05-40.24 403.05l-37 2.08s-7.76-152-6.38-173.1 12.38-56.5 12.38-56.5l-3.69-122.7 46.71-161.19z"/><path class="cls-3" d="M985 697.9s-29.14 43.78-36.08 80 5.09 147.57-8.25 195c-7.23 25.7-34.61 65.39-38.78 98.6s-20.49 120.2-20.49 120.2l37 7.32 86-217.26 67.44-196.36 17.28-101.14z"/><path class="cls-6" d="M1008.61 448.82s-25.53 2.9-40.79 19.5 24.67 150.09 27.45 171.22S972.52 710 972.52 710s95.37 17.62 121.27.51c0 0 2.78-152 0-167.06s-25.9-76.49-31.46-82.53-53.72-12.1-53.72-12.1z"/><path class="cls-12" d="M972.52 480.85a13.41 13.41 0 0118.08-7.91c9.85 4.26 23.46 12.35 30.1 26.2 11.1 23.15 50 102.66 62 105.68s61.06-82.53 61.06-82.53-1.38-15.1 2.78-23.65 16.65-17.61 18.5-14.59-6.94 10.56-6.94 12.07 3.71 2.52 8.79-.5 7.85-9.12 7.85-9.12 8.35 15.16-.44 28.75-12.49 19.12-12.49 19.12-56.91 126.3-77.72 127.81c-19.4 1.41-131.09-122.43-111.57-181.33z"/><path class="cls-12" d="M1021.45 397.37s-.2 1.13-.56 3.06c-1.72 9.26-8.34 40-12.82 48.41-5.41 10.21 18.52 42.75 41.55 38.78 6.85-1.18-5.8-29.9-5.19-32.94l4.36-21.92c.91-4.59 1.83-9.25 2.7-13.63l4.47-22.62z"/><path class="cls-9" d="M1020.89 400.43c.36-1.93.56-3.06.56-3.06l34.51-.86-4.47 22.62c-.87 4.35-1.78 9-2.69 13.56-5.33-.79-10.89-3.37-16.48-8.25a43.35 43.35 0 01-12.47-18.52c.42-2.18.78-4.05 1.04-5.49z"/><path class="cls-12" d="M1042.21 315.35a40.75 40.75 0 00-24.27 15.12c-10.2 13.16-21.18 53.85 4.14 76s50.35-2.91 54.06-29.47 2.96-62.6-33.93-61.65z"/><path class="cls-12" d="M1084.25 367.9c-3 5.86-8.1 9.11-11.34 7.25s-3.41-8.12-.38-14 8.09-9.12 11.33-7.26 3.41 8.11.39 14.01z"/><path class="cls-1" d="M1046.49 314.74s-21.72 38.7-37.27 40.49-17.58 22.35-17.58 22.35 5.55-47.39 20.94-56.52 33.91-6.32 33.91-6.32z"/><path class="cls-12" d="M1014.31 364.45c1.26 6.87-1.28 13.17-5.68 14.07s-9-3.93-10.26-10.81 1.28-13.17 5.68-14.07 8.95 3.93 10.26 10.81z"/><path class="cls-1" d="M902.81 1260.14c-20.17 3.67-33.58-8.11-40.56-16.92-5.13 10-8.27 22.44-4.5 30.64 3.32 7.23 12.36 9.2 20 9.48a21.69 21.69 0 0019.64-10.94 67.54 67.54 0 005.42-12.26zm171.91-2.86c-22.2 5.69-38.61 1.82-47.78-1.87-2.37 6.69-5.51 15.09-3.84 19.94 2 5.93 4.93 7.27 7.5 7.33 20.27.53 74.26 1.26 89.72 1.46a2.52 2.52 0 002-4.14c-3.87-4.57-45.95-21.71-47.6-22.72z"/><path class="cls-3" d="M158.14 395.46c35.13-49.52 113.35-26.61 115.63 34.07 0 .71.05 1.42.06 2.14 1.56 71.75-53 90.47-35.87 141.94s69.29 13.09 89.57 97.32-49 130.93-42.77 180.84S320.63 935 319.07 1000c-1.16 48.34-88.91 198.1-88.91 198.1s-117-127.91-120.1-213.7c-3-81.37 55.26-73.75 58.38-150.18S57.66 747.55 113.17 651.6c11.7-20.22 41.75-39.94 41.75-83.61s-39.51-110.21-8.31-156c3.78-5.52 7.65-11.06 11.53-16.53z"/><path class="cls-6" d="M284.76 851.77c-6.24-49.91 63-96.61 42.77-180.84s-72.41-45.84-89.53-97.32 37.43-70.19 35.87-141.94c0-.72 0-1.43-.06-2.14-1.4-37.26-31.44-60.28-62.55-61l-.15 1.94S167.4 547.2 196.52 636.62s52 95.66 37.43 216.27-3.79 345.16-3.79 345.16 87.75-149.76 88.91-198.1c1.56-64.95-28.07-98.27-34.31-148.18z"/><path d="M304.44 1255.63h-190c-24.2-22.82-38.95-54.23-38.41-88.7.27-17.41 3.74-32.58 11-47.48l245 2.84a115.64 115.64 0 0110.13 49.17c-.55 32.84-14.84 62.44-37.72 84.17z" fill="#f47458"/><rect class="cls-3" x="1005.02" y="103.61" width="248.82" height="127.71" rx="37.32"/><path class="cls-3" d="M1084.29 213.71l-24.22 72.66 70.46-72.66h-46.24z"/><path class="cls-16" d="M1078.06 172.33c0 6.42-5.58 11.63-12.47 11.63s-12.46-5.21-12.46-11.63 5.58-11.63 12.46-11.63 12.47 5.21 12.47 11.63zm63.7 0c0 6.42-5.58 11.63-12.46 11.63s-12.47-5.21-12.47-11.63 5.58-11.63 12.47-11.63 12.46 5.21 12.46 11.63zm63.7 0c0 6.42-5.58 11.63-12.46 11.63s-12.46-5.21-12.46-11.63 5.57-11.63 12.46-11.63 12.46 5.21 12.46 11.63z"/><path class="cls-2" d="M280.19 873.26s103.4-31 107.56-30.25-12.15 35.24-10.12 46.39c.65 3.57-88.5 54.55-108.31 50.79-21.6-4.1-104.64-75.53-113.49-91-9.9-17.31-27.23-60.48-15.69-76.75 5.26-7.41 18-17.27 26.85-15.19 35.18 8.28 73.16 70.58 113.2 116.01z"/><path class="cls-6" d="M285.87 991.8c-.68-3.07-22.13-53-23.22-58.06-14.25-66.5-69.1-163.74-94.5-176.25-4.11-2.06-33.43-2.24-33.43-2.24l15.16 7.49c17.26 15.77 36.58 34 48.91 54.36 35.74 59 60.08 195 63.33 194.76 3.64-.27 25.26-13.25 23.75-20.06z"/><path class="cls-3" d="M251.92 993.65c-50.2-29.2-58.1-98.14-79.32-135.16-26-45.33-64.32-50.28-130.29 31.9-80.88 100.75-39.73 303.42 72 368.37l267.82-.57c55.18-19.87 79.69-49 99.51-97.52 88.1-215.78-118.03-102.07-229.72-167.02z"/><path class="cls-12" d="M370.71 1217.45s-1.87 33-1.88 33.07c-.69 4.19-3.39 14.55-3.39 18.35 0 14.31 63.67-12.14 49.4-18.48-1.3-.58-10.07-8.16-10.49-13-.66-7.5-.31-19.44-.31-19.44z"/><path class="cls-1" d="M413.92 1249.76s-14.95 4.38-22.61 5.47-17.75-8.11-23.16-5.63c-4.43 2-6.15 16.79-6.75 24.26a4.22 4.22 0 004 4.54c17.6.92 84.55 4 101.92-1 9-2.63-22.85-17.4-53.4-27.64zm135.7-65.39s-15 4.37-22.61 5.47-17.75-8.12-23.16-5.63c-4.42 2-6.15 16.78-6.74 24.25a5.22 5.22 0 004.25 5.28c19.53 1.92 84.28 3.27 101.65-1.76 8.99-2.61-22.83-17.42-53.39-27.61z"/><path class="cls-12" d="M486.88 1157.62s17.91 25.18 19.58 30.74 43.17 9.64 43.17-4c0-.17-12.87-10.64-16.5-15.41-6.08-8-20.25-34.61-20.25-34.61z"/><path class="cls-1" d="M101.36 609.06s-20.21-13.66-28.75 10.27c0 0-11.42-3.46-16.3 8.27 0 0-19.57-1.47-18 26.95 0 0-9.84.31-8.61 11.81a28.41 28.41 0 008.59 17.72s-4.43 5.15.26 14.94c4 8.32 11.54 8.05 11.54 8.05s5.23 14.36 12.62 17.4 15.66-1 15.66-1 4.09 7.5 11.41 5.14 15-11.54 24.1-10.18 30.12-6.86 30.12-6.86 22-16.26 9.2-39.59c0 0 10.27-14.41-4-25.83 0 0 3.4-23.55-15.65-32.79s-32.19-4.3-32.19-4.3z"/><path class="cls-11" d="M421.7 965.78c-16.8-8.27-193 19.18-193 19.18l-21.14-33.68-68.79 15.61s-19.48 22.41-20.28 32.45c-2.61 32.49 12.28 87.12 29.08 92.43 59.81 18.92 188.39-19.74 206.4-23.87 0 0-.66 29.14 4.8 88.61 2.15 23.5 5 49.4 7.59 72.06 15.74 0 31.48-.33 47.22-2.4-.05 0 24.92-252.17 8.12-260.39z"/><path class="cls-10" d="M533.42 1154.06c-30.15-76.15-95.58-225.61-119.3-229.82C383 918.73 228.62 985 228.62 985l156.67-3.27s.86 1.55 7.68 34.39c5.32 25.6 64.26 115.73 97.86 165.66 15.5-6.99 30.85-13.46 42.59-27.72z"/><path class="cls-16" d="M135.47 755.81s-39-.45-43.16.47 3.28 159.21 8.35 218.28 13.21 67.93 13.21 67.93 55.64.22 94.08-11.92c40-12.62 49.48-59.06 49.48-59.06s-36.21-106.19-50.73-139.1c-9.28-21-27.83-44.75-46.62-64a45.52 45.52 0 00-24.61-12.6z"/><path class="cls-12" d="M124.5 727l7.83 21.36s13.65 30.24 6.45 38.25-44.92-30.7-44.92-30.7l-9.38-56.43z"/><path class="cls-9" d="M87.52 717.76c11.27 17.47 30.67 25.45 43.62 27.35L124.5 727l-40-27.52z"/><path class="cls-12" d="M91.3 636.51a30.14 30.14 0 0143.7 14.94 230 230 0 018.62 27.72c6.14 25.61-1.64 53.57-13.31 56.14s-47.62-6.93-56.85-43.18c-5.72-22.37 1.01-45.33 17.84-55.62z"/><path class="cls-12" d="M82.68 693.12c1.25 5.67-1.49 11.1-6.13 12.12s-9.41-2.74-10.66-8.41 1.49-11.1 6.12-12.12 9.42 2.74 10.67 8.41z"/><path class="cls-6" d="M93.79 755.74s-45.3-1.8-55.61 7.72c-6.55 6.06 6.72 66.67 6.72 66.67s36.95 70.72 42.33 112.09c8.92 68.72 17.06 110.94 20.58 113.21 20.35 7.31 87.65-6.59 90.45-14.55 30.89-87.8-104.47-285.14-104.47-285.14z"/><path class="cls-1" d="M312.84 901.27l30.07-127a7.3 7.3 0 017.1-5.61h54.6a7.29 7.29 0 017 9.16l-33.12 124.97a7.29 7.29 0 01-6.76 5.42l-51.51 2a7.29 7.29 0 01-7.38-8.94z"/><path class="cls-12" d="M362.67 898a65.29 65.29 0 00-8.78 2.25c-2.86 1-5.81 1.11-8.34 1.63-5 1-8.68 1.86-8.61 1.63s-1-.77 1.59-1.76c3.15-1.2 10.4-2.31 14.91-4.42 2.56-1.19 8-3.38 8-3.38s7.7-4.81 7.57-5.33c-.7-2.86-6.87-1-10.13 1-2.75.29-8.46 2.75-8.46 2.75s-12.65 2.46-13 .72c-.15-.74 7.44-3.15 14.52-6.65 6.57-3.25 12.69-7.57 12.26-8.92-.75-2.3-8.42.56-8.42.56s-5.28 2.27-7.09 2.9c-2.12.74-8.63 2.47-8.63 2.47s-22.94 5-23.13 3.32 1.09-6.18 2.42-7 4.49-1 5.81-1.8a3.75 3.75 0 001.53-4.55c-.83-1.64-8.66-.19-8.66-.19s-6.36 1.22-9.79 4.1c-11.86 10-9.74 11.46-11.29 12.7-1.84 1.46-33.16 4.9-33.16 4.9s-92.24 10.7-97.24 11.11l3.24 30.71c5.49.56 111.95-18 122.87-20.16 0 0 13.93 2.07 22.72 3.09s17.68-1.83 20.2-1.92a81.19 81.19 0 0018.94-4.39c8.75-3.13-.94-4.05-.94-4.05s-17.22 3-17.2 1.61c0-1 9.51-2.13 19.22-5.49 2.5-.86 5-1.72 7.22-2.53 5.96-2.05 6.39-6.18-.15-4.91z"/><path class="cls-14" d="M152.8 891.08s107.59-.78 111.76 0 5.24 28.36 7.27 39.51c.65 3.57-113.41 16.35-133.22 12.58-21.6-4.1-76-63.86-88.61-84-10.57-16.91-33.14-60-27.52-78.8 3.39-11.39 21-24.24 30.6-21.26C91.42 771 152.8 891.08 152.8 891.08z"/><path class="cls-12" d="M396.56 840.41a3.58 3.58 0 014.83 2.6c.43 2.24.44 4.91-1.26 6.61-3.39 3.38-26.23 5.92-26.23 2.54 0-2.6 15.49-8.95 22.66-11.75z"/><path class="cls-12" d="M401.59 850.33s2.63 8.42.66 8.57-26.45 3.59-27.66.71 23.77-10.87 27-9.28z"/><path class="cls-12" d="M402.6 859.78s.94 3.74-1 6.05-24.84 2.37-25.91-1.21 25.92-7.57 26.91-4.84z"/><path class="cls-12" d="M397.36 868.38s.47 2.85-.48 4.26-17.93 2.3-20.15-1 18.11-6.64 20.63-3.26z"/><path class="cls-3" d="M1662 465.05c23.45-1.32 36.79 26.87 21 44.35a17.65 17.65 0 00-4.48 11.48l-.35 14.57a7.69 7.69 0 01-7.27 7.51l-8.88.51a7.72 7.72 0 01-8.07-6.65c-2-14.52-1.67-20-7.73-25.35-17.78-15.58-7.7-45.09 15.78-46.42z"/><path class="cls-16" d="M1671.87 526.05c-1.18-11.77-2-24.78-2.18-29.66a35.4 35.4 0 01-13-.76c1.45 9.71 2.67 19.55 3.61 29.29l-1.26.12c-1-9.9-2.2-19.9-3.68-29.76-2.56-.74-5.53-1.75-6.94-4a4.68 4.68 0 01-.54-3.62c.87-3.17 4.74-3.2 6.66-.57 1.27 1.74 1.48 4.09 2 7.15a34.1 34.1 0 0013.15.84 11.63 11.63 0 011.69-6.76c4.74-6.89 12.72 5.68-.41 7.85.12 3.82.92 17.17 2.18 29.72zm.53-37a10.25 10.25 0 00-1.46 5.85c2.84-.5 4.65-1.47 5.53-3 1.47-2.46-1.47-6.53-4.07-2.82zm-22.25-2.38c-1.3.66-1.42 2.7-.63 3.94 1.13 1.78 3.57 2.62 5.66 3.26-.37-2.43-.56-4.56-1.63-6-.75-1.02-3.26-1.24-3.4-1.17z"/><path class="cls-6" d="M1678.46 520.52v.36l-.35 14.57a7.69 7.69 0 01-7.27 7.51l-8.88.51a7.72 7.72 0 01-8.07-6.65c-.88-6.46-1.31-11.13-2-14.8z"/><path d="M1676.44 451l4-13.85a2.53 2.53 0 00-4.86-1.41l-4 13.86a2.53 2.53 0 004.86 1.4zm21.45 26.57l14.45-4.57a2.54 2.54 0 001.65-3.18 2.51 2.51 0 00-3.17-1.64l-14.46 4.57a2.53 2.53 0 101.53 4.82zm24.7 41.95a2.54 2.54 0 00-.8-3.49 83.29 83.29 0 00-14-7 2.53 2.53 0 10-1.83 4.71 77.61 77.61 0 0113.14 6.59 2.54 2.54 0 003.49-.81zm-82.73-61.06a2.53 2.53 0 001.08-3.41 96.1 96.1 0 01-7.32-18.48 2.53 2.53 0 00-4.87 1.37 102.15 102.15 0 007.7 19.45 2.53 2.53 0 003.41 1.07zm-10.95 22.34a2.54 2.54 0 00-2.34-2.71l-16.36-1.2a2.53 2.53 0 00-.37 5.05l16.36 1.2a2.54 2.54 0 002.71-2.34zm-16.09 46.4a2.33 2.33 0 00.65-.24 79.89 79.89 0 0014-9.57 2.53 2.53 0 00-3.29-3.84 74.14 74.14 0 01-13.09 9 2.53 2.53 0 001.75 4.69z" fill="#dde8fe"/><path class="cls-3" d="M1824.25 827.74c-56.13-72.07-89.64-68.44-113.09-29.72-19.14 31.61-27.22 91-71.51 115.39-98.52 54.22-227.42 35.35-175.85 189.1 14.41 43 36.61 39.57 46.89 39.88l250.6-.25c98.52-54.23 131.77-226.06 62.96-314.4z"/><path class="cls-1" d="M1771.53 693.81c5.77-28.19-7.49-56.14-32.84-66.63.16-16-6.16-32.14-17.08-43.13-21.55-21.66-65.94-31-81.78-3.41-20.93 11.87-19.61 26.62-13.37 50-20.28 21.07-12.87 55.57 16.71 73.57-.47 23.64-1.09 59.29 19.52 69.4 5 2.42 12.69 5.8 13.67 6.85-1.29-1.22 15.27 45 66.7 23.85 52.48-21.55 62.68-82.31 28.47-110.5z"/><path class="cls-9" d="M1553.48 884.07c4.13-4.08 11.4-7.69 11-8.29-1.73-2.42-19.69 16.15-18.52 10.92.66-2.91 13.52-18.09 18.08-18.66s33.07-5.07 33.07-5.07l66.19-44s3.28-52-10.77-87.09c15.37-4.69 18.36-5.69 34.15-4.47 9 35.56 18.7 95.45 7 112.91-4.93 7.34-91 35.74-91 35.74s-18.62 7-22.09 7.22c-2.63.17-9.87-.43-13.41.11-8 1.25-18 13.21-18.69 11.83-.49-.99.77-6.99 4.99-11.15z"/><path class="cls-11" d="M1644.47 727.72a230.73 230.73 0 0112.62-20.62c6.44-11.5 23.1-17.32 23.1-17.32s5.57.11 12 .43a5.08 5.08 0 001.21 2.13c2.4 1.81 16.19-.53 25.09 5.54 29.83 25.66 21.58 150 19.23 189.32l-74.48.31s-4.92-84-23.38-105.69c-12.86-15.13-4.62-37.04 4.61-54.1z"/><path class="cls-9" d="M1624.05 1165.3c-.8-1.47-11.16-26.44-19.61-37.56-12.28-16.15-118.46-162.36-114.09-198 1.91-15.54 47.92-28.71 53.38-29.65 29.28 3.93-1.48 29.13 20.51 49.85-14.3 4.89-22.73 11-19.64 15 12.38 16.1 78.1 145.82 81 147.5 12.73 7.46 17.72 4 17.72 4s-2.93 73-9 70.66-1.27-5.21-10.27-21.8z"/><path class="cls-11" d="M1648.65 1117l-12.28 73.51c-2.76 9.52-7.4 9.41-8.59 8.14-2.45-2.63-3.57-22.26-3.87-33.42 5.54-17 5-49.08 1.6-52.7 8.35.12 23.13 2.81 23.14 4.47z"/><path class="cls-12" d="M1604.76 936.86c-16.48-27.32-15.6-23.86-44.27-36.21-11.49 4.62-49.94 28.72-54.82 33.17l61.16 44.36c-2-4.96 19.3-29.59 37.93-41.32zm80.66-289.16s5 35.79 8.48 44.49-19.18 27.3-38 32.94 5.77-19.21 5-28.51-4.2-53.31-4.2-53.31z"/><path class="cls-9" d="M1657.59 655.93c-.55-7.28-.95-12.62-.95-12.62l28.78 4.39s.73 4.21 1.53 10.15c-11.67 6.8-22.16 4.65-29.36-1.92z"/><path class="cls-12" d="M1676.39 582.33a32.73 32.73 0 0118.36 13.3c7 10.72 11.81 42.31-11.27 57s-41-6.11-41.31-26.45 4.04-47.43 34.22-43.85z"/><path class="cls-12" d="M1636.89 619.86c2 4.91 5.87 8 8.72 6.8s3.56-6.06 1.59-11-5.87-8-8.72-6.81-3.56 6.15-1.59 11.01zm58.22 4.04c-1.67 5.28-.14 10.49 3.42 11.62s7.81-2.23 9.48-7.52.14-10.49-3.42-11.62-7.8 2.23-9.48 7.52z"/><path class="cls-2" d="M1608.12 889.61c12.74-1.17 54.9-5.45 54.9-5.45l74.8-10s13.22 31.58 13.73 51.39c.91 34.66-31 63.87-58.27 62.2-16.24-1-108.17-3-126.12-9.67-3.7-28.24-8-58.84-27-79.16 30.48-4.23 50.67-7.72 67.96-9.31z"/><path class="cls-12" d="M1607.16 1151c-2-2.12-18.46-114.36-28.36-161.47a39.57 39.57 0 00-19.8-26.59l-53.36-29.12c-18.48 16.91 67.77 206.77 75.66 226.67 5.44 13.7 8.85 42 9.25 43.73 4.44 19.41-1.35 21.06 4.17 25.13s30.27-66.8 30.27-66.8-6.99-.3-17.83-11.55z"/><path class="cls-1" d="M1623.24 894.5c0 2.82-2.59 5.12-5.8 5.13l-90.63.21c-3.21 0-6.43-2.77-7.48-6.2l1.66 1.1c0-2.83 2.59-5.13 5.8-5.14l90.62-.21c3.21-.01 5.82 2.28 5.83 5.11z"/><path class="cls-1" d="M1527.73 898a13 13 0 001.63-.1c4.69-.6 7.77-3.59 6.87-6.69l-34.59-119.68c-.89-3.1-5.42-5.13-10.11-4.54s-7.77 3.58-6.87 6.69l34.58 119.68c.76 2.72 4.42 4.64 8.49 4.64z"/><path class="cls-12" d="M1554.42 881.77c5.18-2.59 13.21-3.77 13-4.48-.89-2.84-23.93 11.85-21.19 7.24 1.52-2.57 18.66-15.6 23.17-14.73s33 5.43 33 5.43l73.7-26.64s14.05-45.83 11.55-83.51c16.06.3 27.28 3 41.91 9-2.45 36.6-11.8 96.55-28.34 109.52-7 5.46-97.55 5.79-97.55 5.79s-19.87.9-23.24 0c-2.55-.65-9.25-3.48-12.79-4.05-8-1.3-21.21 7-21.43 5.46-.14-1.06 2.91-6.38 8.21-9.03z"/><path class="cls-10" d="M1682.55 725.1c1-11.58 2.44-23.25 14.25-28.25 7.32-3.11 16.07-2 22.7 2.28 7.89 5.07 11 14.31 12 23.27 2.3 20.36 3.37 41.62 2 62.09-14.64-6.06-34.54-2.85-50.6-3.16-3.57-17.93-1.69-41.13-.35-56.23z"/><path class="cls-12" d="M1565.36 870.84c-12.59 3.22-11.89 3-12.39 3.3-8.9 5.61-8.2 8 5.46 2.19a2.77 2.77 0 011.1-.22l6.48.07a2.71 2.71 0 001.82-4.75 2.73 2.73 0 00-2.47-.59z"/><path class="cls-11" d="M1590 1200.07s.53 8.9-2.46 16-14.43 9.82-11.66 13.51 24.86 0 24.86 0l25.57-62.53a5.79 5.79 0 00-1.47-6.73c-3.07-2.69-8.7-6.52-17.58-9.18.03.04 1.41 39.27-17.26 48.93z"/><path class="cls-9" d="M1164.13 736.66c15.61-4.49 16-1.71 18-2.34 2.34-.75 21.22-26.32 21.22-26.32s56.2-75 59.08-79.14l17.73-97 53.24-.42s-22.24 104.76-24.42 110-91.24 96.75-98.78 105.09c0 0-4.88 13.53-8.24 21.91s-10.56 14.49-11.9 16.67a72.26 72.26 0 01-13.69 14.07c-7.39 5.85-3.48-3.25-3.48-3.25s11.44-13.42 10.1-14.22c-1-.62-6.8 7.11-14.9 13.67-2.08 1.69-4.14 3.34-6 4.85-5 4-9.25 1.85-4.77-3.16a57 57 0 016.54-6.4c2.44-1.89 4-4.46 5.74-6.38 3.5-3.81 6.11-6.55 5.86-6.62s-.24-1.38-2.51.34c-2.74 2.07-7.42 7.8-11.71 10.51-2.44 1.54-7.3 5.07-7.3 5.07s-8.5 3.91-9 3.48c-2.45-2.33 2.42-6.67 6.06-8.31 1.64-2.25 6.87-5.82 6.87-5.82s8.68-9.68 7.16-11c-.65-.57-6.77 4.67-13.7 8.82-6.43 3.86-13.68 6.66-14.79 5.46-1.88-2 4.72-7.09 4.72-7.09s4.84-3.29 6.35-4.51c1.77-1.43 6.69-6.14 6.69-6.14s16.25-17.33 14.7-18.48-6.58-2.75-8-2.06-3.21 3.36-4.63 4.06a4.49 4.49 0 01-5.21-1.38c-1.19-1.72 4.11-7.76 4.11-7.76s4.35-4.86 8.86-6.2z"/><path class="cls-12" d="M1252.53 1223.32s1.9 33.47 1.91 33.54c.7 4.25 3.44 14.75 3.44 18.61 0 14.52-64.57-12.31-50.1-18.75 1.31-.58 8.17-5 8.6-9.92.67-7.61 2.35-23 2.35-23z"/><path class="cls-1" d="M1207.94 1256.59s15.16 4.44 22.92 5.54 18-8.23 23.5-5.71c6 2.78 5.43 30.14 5.43 30.14s-80.92 4.77-103.78-2.6c-9.01-2.91 20.99-17.03 51.93-27.37z"/><path class="cls-12" d="M1394.79 1226.54s1.9 33.47 1.91 33.54c.69 4.24 3.44 14.74 3.44 18.61 0 14.51-64.57-12.32-50.1-18.75 1.31-.59 10.2-8.28 10.64-13.21.66-7.62.31-19.72.31-19.72z"/><path class="cls-1" d="M1350.2 1259.8s15.16 4.44 22.92 5.55 18-8.24 23.49-5.71c6.05 2.77 6.29 27.78 6.29 27.78s-86.51 6.27-106.85.39c-9.14-2.65 23.16-17.67 54.15-28.01z"/><path d="M1292.47 743.38l-27.3 11.78-57.42 274.23 2.32 205.58 46 1.07s21.41-179.83 21.41-193.77 99.17-243.88 99.17-243.88z" fill="#3c4cd6"/><path class="cls-2" d="M1313.54 758.47s20.11 211.29 20.11 246.9 16.31 235 16.31 235l46.14-.27s3.33-60.76 8.28-150.15c.77-14-1-42.24 0-56.74 7.17-104.23 21.37-202.36 14.59-241.26-1.09-6.26-3.14-22.63-7.14-26.76-30.21-31.3-98.29-6.72-98.29-6.72z"/><path class="cls-14" d="M1257.25 591.73l55.84-3.74s2.75-49.91 2.75-73.72c0-28.88 8.81-71.47 5.37-70.67-9.66 2.25-26.34 11.14-34.08 21.93-26.8 37.32-29.88 126.2-29.88 126.2z"/><path class="cls-3" d="M1389.54 442.5s31.84 4.42 40.22 10.58c9.44 6.93 19.91 22.44 19.91 22.44s-39.09 184.79-39.16 215.88c0 24.06 8.46 83.13 8.46 83.13s-118.13 7.47-162.87-10.21c0 0 14.13-70.25 14.13-88.7s16.9-186.19 20.74-197.9c3.49-10.63 9.87-29.73 31.46-34.44s67.11-.78 67.11-.78z"/><path class="cls-12" d="M1380.84 392.75l7.89 51.6s-28.79 61.44-46 56.11c-14.41-4.47-5.54-58.84-5.54-58.84s7.85-29.19 5.5-43.8 38.15-5.07 38.15-5.07z"/><path class="cls-9" d="M1342.72 397.82c-2.36-14.61 38.12-5.07 38.12-5.07l.66 4.28a23.86 23.86 0 01-4.39 7.19c-9 9.67-23.18 15.47-35.4 15.91 1.22-7.88 1.97-16.32 1.01-22.31z"/><path class="cls-12" d="M1387.49 319.74c1.14-.41 9.17 58.77-6.06 75.06s-44.92 21.61-55.57 8.79c-11.77-14.19-11.18-77.8 12.5-94.55s49.13 10.7 49.13 10.7z"/><path class="cls-1" d="M1347.38 277.38a65.8 65.8 0 0134.52 19.56c8.31 1 19.61 5.54 31.28 24.73 14.35 23.59 3.75 49.73-13 62.56s-16.51 27.71-16.51 27.71l-2.59-7.73a42.58 42.58 0 01-2.1-18 35.29 35.29 0 012.7-10.85c4-8.57-8.62-14.26-12.17-21.39-2.73-5.48-2.86-18-7.16-27.11l-5.14-6.92s-11.85-9.16-23.44-6.58-9.88-40.73 13.61-35.98z"/><path class="cls-12" d="M1370.34 364.46c-.12 7.22 3.18 13.13 7.38 13.2s7.7-5.73 7.82-13-3.18-13.13-7.38-13.2-7.7 5.77-7.82 13z"/><path class="cls-1" d="M1308.34 630.46l-.76 4.41a4.16 4.16 0 01-4.82 3.39l-91.31-15.81a4.17 4.17 0 01-3.39-4.82l.76-4.4a4.18 4.18 0 014.82-3.4l91.36 15.82a4.15 4.15 0 013.34 4.81z"/><path class="cls-12" d="M1437.79 466.29c-10.72-.31-20.19 70.35-13.4 77.33s8.09 94 8.09 94l-101.07-2.51c-2-1.32-23.14-15.54-26.17-18.65-3.18-3.26-18.61-1.63-22.69 2.86s9.08.81 12.71 3.26-2.73 8.55-2.73 8.55-25.61 3.72-30.6-1.58-18.33-14.26-20.15-9c-.93 2.74 6 11 9.82 14.5-4.84-3.62-10.63-7.47-12.61-6.8-3.63 1.22-2.12 5.84-.15 7.2s22.3 16.88 25.47 18 50.4 2.23 58.57 4c0 0 133.27 30.35 140.85 28.45 6.64-1.66 13.29-44.31 13.29-77s-5.76-141.64-39.23-142.61z"/><path class="cls-3" d="M1423.89 450.17s18.64 4.29 37.9 25.94c17.52 19.68 28.55 129.89 28.55 129.89l-60.47 9.77-4.87-53.31-16.16-24.38z"/><rect class="cls-3" x="229.73" y="573.13" width="196.68" height="100.95" rx="29.5"/><path class="cls-3" d="M292.39 660.15l62.27 98.72-25.72-98.72h-36.55z"/><path class="cls-14" d="M1516 142.34l-6-14.16-15-3.09a2.12 2.12 0 01-1-3.67l11.62-10.06-1.71-15.27a2.11 2.11 0 013.18-2l13.17 7.94 14-6.35a2.11 2.11 0 012.93 2.4l-3.48 15 10.36 11.35a2.11 2.11 0 01-1.37 3.53l-15.32 1.32-7.59 13.36a2.11 2.11 0 01-3.79-.3z"/><path class="cls-3" d="M732 85.35l-4.74-11.22-11.93-2.45a1.68 1.68 0 01-.76-2.91l9.2-8-1.35-12.11a1.67 1.67 0 012.52-1.62l10.44 6.29 11.09-5a1.67 1.67 0 012.32 1.9L746 62.1l8.22 9a1.68 1.68 0 01-1.1 2.8l-12.13 1-6 10.59a1.67 1.67 0 01-2.99-.14z"/><path class="cls-11" d="M1687.5 94.22l-4.07 16.4-27.12-3.64-8.91 23.25-20.74.6.3 10.5 27.73-.8 8.45-22.03 28.22 3.78 6.12-24.68-9.98-3.38z"/><path class="cls-2" d="M829.86 106.69l-4.07 16.41-27.12-3.64-8.91 23.25-20.74.59.3 10.5 27.73-.79 8.45-22.04 28.22 3.79 6.12-24.69-9.98-3.38z"/><path class="cls-11" d="M1024.76 57.23l-15.29 7.19-14.29-23.34-23.66 7.76-13.55-15.72-7.96 6.86L968.13 61l22.43-7.35 14.86 24.28 23.02-10.82-3.68-9.88z"/><path class="cls-2" d="M1511.64 38.15l-24.78 6.76-5.34-30.03 8.11-1.44 3.76 21.15 16.08-4.39 2.17 7.95z"/><path class="cls-14" d="M943.69 182.32l-71.47.21a10.11 10.11 0 01-10.13-10.08l91.67-.26a10.1 10.1 0 01-10.07 10.13zm2.39-45.52c-8 0-14.49 5.17-14.47 11.49s6.54 11.42 14.54 11.4 14.49-5.18 14.47-11.49-6.54-11.43-14.54-11.4zm0 17.73c-5.06 0-9.35-2.85-9.36-6.26S941 142 946.1 142s9.36 2.85 9.37 6.26-4.27 6.26-9.34 6.27z"/><path class="cls-14" d="M943.31 126.65c.09 28.76-16.44 52.12-36.92 52.18s-37.15-23.2-37.23-52c0-3.65 16.58-6.66 37.06-6.72s37.08 2.89 37.09 6.54z"/><path class="cls-6" d="M943.31 126.65c0 3.65-16.58 6.66-37.06 6.72s-37.08-2.85-37.09-6.5 16.58-6.66 37.06-6.72 37.08 2.85 37.09 6.5z"/></g></g></svg>